%TF.GenerationSoftware,KiCad,Pcbnew,(6.0.4-0)*%
%TF.CreationDate,2022-05-31T14:07:50+12:00*%
%TF.ProjectId,usba_caddy,75736261-5f63-4616-9464-792e6b696361,rev?*%
%TF.SameCoordinates,PX6bf4b80PY4944400*%
%TF.FileFunction,Copper,L2,Bot*%
%TF.FilePolarity,Positive*%
%FSLAX46Y46*%
G04 Gerber Fmt 4.6, Leading zero omitted, Abs format (unit mm)*
G04 Created by KiCad (PCBNEW (6.0.4-0)) date 2022-05-31 14:07:50*
%MOMM*%
%LPD*%
G01*
G04 APERTURE LIST*
%TA.AperFunction,Profile*%
%ADD10C,0.100000*%
%TD*%
%TA.AperFunction,ComponentPad*%
%ADD11O,3.500000X1.900000*%
%TD*%
G04 APERTURE END LIST*
D10*
X4025005Y14299979D02*
G75*
G03*
X3500000Y13625000I171395J-674979D01*
G01*
X16050000Y17675000D02*
X4025000Y14300000D01*
X16025000Y3650000D02*
X4000000Y7025000D01*
X27900000Y3500000D02*
G75*
G03*
X28650000Y4250000I0J750000D01*
G01*
X16024998Y3649996D02*
G75*
G03*
X16700000Y3500000I675002J1443804D01*
G01*
X28650000Y4250000D02*
X28650000Y17050000D01*
X28650000Y17050000D02*
G75*
G03*
X27900000Y17800000I-750000J0D01*
G01*
X16700000Y3500000D02*
X27900000Y3500000D01*
X3500482Y7724983D02*
G75*
G03*
X4000000Y7025000I704918J-25183D01*
G01*
X3500000Y7725000D02*
X3500000Y13625000D01*
X27900000Y17800000D02*
X16700000Y17800000D01*
X16700000Y17800000D02*
G75*
G03*
X16050000Y17675000I0J-1752500D01*
G01*
D11*
%TO.P,USBA_PLUG,5*%
%TO.N,N/C*%
X25650000Y4950000D03*
X25650000Y16350000D03*
%TD*%
%TO.P,,1*%
%TO.N,N/C*%
%TA.AperFunction,ComponentPad*%
G36*
G01*
X6325000Y12250000D02*
X4225000Y12250000D01*
G75*
G02*
X3775000Y12700000I0J450000D01*
G01*
X3775000Y13600000D01*
G75*
G02*
X4225000Y14050000I450000J0D01*
G01*
X6325000Y14050000D01*
G75*
G02*
X6775000Y13600000I0J-450000D01*
G01*
X6775000Y12700000D01*
G75*
G02*
X6325000Y12250000I-450000J0D01*
G01*
G37*
%TD.AperFunction*%
%TD*%
%TO.P,,1*%
%TO.N,N/C*%
%TA.AperFunction,ComponentPad*%
G36*
G01*
X6324999Y7275000D02*
X4224999Y7275000D01*
G75*
G02*
X3774999Y7725000I0J450000D01*
G01*
X3774999Y8625000D01*
G75*
G02*
X4224999Y9075000I450000J0D01*
G01*
X6324999Y9075000D01*
G75*
G02*
X6774999Y8625000I0J-450000D01*
G01*
X6774999Y7725000D01*
G75*
G02*
X6324999Y7275000I-450000J0D01*
G01*
G37*
%TD.AperFunction*%
%TD*%
M02*
