%TF.GenerationSoftware,KiCad,Pcbnew,(6.0.1-0)*%
%TF.CreationDate,2022-05-31T21:37:02+12:00*%
%TF.ProjectId,usba_caddy,75736261-5f63-4616-9464-792e6b696361,rev?*%
%TF.SameCoordinates,PX6bf4b80PY4944400*%
%TF.FileFunction,Legend,Top*%
%TF.FilePolarity,Positive*%
%FSLAX46Y46*%
G04 Gerber Fmt 4.6, Leading zero omitted, Abs format (unit mm)*
G04 Created by KiCad (PCBNEW (6.0.1-0)) date 2022-05-31 21:37:02*
%MOMM*%
%LPD*%
G01*
G04 APERTURE LIST*
%ADD10C,0.125000*%
%TA.AperFunction,Profile*%
%ADD11C,0.100000*%
%TD*%
%ADD12C,0.120000*%
%ADD13C,1.100000*%
%ADD14R,2.500000X1.100000*%
%ADD15O,3.500000X1.900000*%
G04 APERTURE END LIST*
D10*
X18616666Y11983334D02*
X18783333Y11283334D01*
X18916666Y11783334D01*
X19050000Y11283334D01*
X19216666Y11983334D01*
X19483333Y11283334D02*
X19483333Y11983334D01*
X19483333Y11650000D02*
X19883333Y11650000D01*
X19883333Y11283334D02*
X19883333Y11983334D01*
X20116666Y11983334D02*
X20516666Y11983334D01*
X20316666Y11283334D02*
X20316666Y11983334D01*
X18633333Y4616667D02*
X18733333Y4583334D01*
X18900000Y4583334D01*
X18966666Y4616667D01*
X19000000Y4650000D01*
X19033333Y4716667D01*
X19033333Y4783334D01*
X19000000Y4850000D01*
X18966666Y4883334D01*
X18900000Y4916667D01*
X18766666Y4950000D01*
X18700000Y4983334D01*
X18666666Y5016667D01*
X18633333Y5083334D01*
X18633333Y5150000D01*
X18666666Y5216667D01*
X18700000Y5250000D01*
X18766666Y5283334D01*
X18933333Y5283334D01*
X19033333Y5250000D01*
X19333333Y4583334D02*
X19333333Y5283334D01*
X19333333Y4950000D02*
X19733333Y4950000D01*
X19733333Y4583334D02*
X19733333Y5283334D01*
X20066666Y4583334D02*
X20066666Y5283334D01*
X20233333Y5283334D01*
X20333333Y5250000D01*
X20400000Y5183334D01*
X20433333Y5116667D01*
X20466666Y4983334D01*
X20466666Y4883334D01*
X20433333Y4750000D01*
X20400000Y4683334D01*
X20333333Y4616667D01*
X20233333Y4583334D01*
X20066666Y4583334D01*
X19016666Y9950000D02*
X18950000Y9983334D01*
X18850000Y9983334D01*
X18750000Y9950000D01*
X18683333Y9883334D01*
X18650000Y9816667D01*
X18616666Y9683334D01*
X18616666Y9583334D01*
X18650000Y9450000D01*
X18683333Y9383334D01*
X18750000Y9316667D01*
X18850000Y9283334D01*
X18916666Y9283334D01*
X19016666Y9316667D01*
X19050000Y9350000D01*
X19050000Y9583334D01*
X18916666Y9583334D01*
X19750000Y9283334D02*
X19516666Y9616667D01*
X19350000Y9283334D02*
X19350000Y9983334D01*
X19616666Y9983334D01*
X19683333Y9950000D01*
X19716666Y9916667D01*
X19750000Y9850000D01*
X19750000Y9750000D01*
X19716666Y9683334D01*
X19683333Y9650000D01*
X19616666Y9616667D01*
X19350000Y9616667D01*
X20050000Y9283334D02*
X20050000Y9983334D01*
X20450000Y9283334D01*
X20450000Y9983334D01*
X18966666Y7150000D02*
X19066666Y7116667D01*
X19100000Y7083334D01*
X19133333Y7016667D01*
X19133333Y6916667D01*
X19100000Y6850000D01*
X19066666Y6816667D01*
X19000000Y6783334D01*
X18733333Y6783334D01*
X18733333Y7483334D01*
X18966666Y7483334D01*
X19033333Y7450000D01*
X19066666Y7416667D01*
X19100000Y7350000D01*
X19100000Y7283334D01*
X19066666Y7216667D01*
X19033333Y7183334D01*
X18966666Y7150000D01*
X18733333Y7150000D01*
X19766666Y6783334D02*
X19433333Y6783334D01*
X19433333Y7483334D01*
X20000000Y6783334D02*
X20000000Y7483334D01*
X20400000Y6783334D02*
X20100000Y7183334D01*
X20400000Y7483334D02*
X20000000Y7083334D01*
X19100000Y13783334D02*
X18866666Y14116667D01*
X18700000Y13783334D02*
X18700000Y14483334D01*
X18966666Y14483334D01*
X19033333Y14450000D01*
X19066666Y14416667D01*
X19100000Y14350000D01*
X19100000Y14250000D01*
X19066666Y14183334D01*
X19033333Y14150000D01*
X18966666Y14116667D01*
X18700000Y14116667D01*
X19400000Y14150000D02*
X19633333Y14150000D01*
X19733333Y13783334D02*
X19400000Y13783334D01*
X19400000Y14483334D01*
X19733333Y14483334D01*
X20033333Y13783334D02*
X20033333Y14483334D01*
X20200000Y14483334D01*
X20300000Y14450000D01*
X20366666Y14383334D01*
X20400000Y14316667D01*
X20433333Y14183334D01*
X20433333Y14083334D01*
X20400000Y13950000D01*
X20366666Y13883334D01*
X20300000Y13816667D01*
X20200000Y13783334D01*
X20033333Y13783334D01*
D11*
X4025000Y14300001D02*
G75*
G03*
X3500000Y13625000I171428J-675000D01*
G01*
X16050000Y17675000D02*
X4025000Y14300000D01*
X16025000Y3650000D02*
X4000000Y7025000D01*
X27900000Y3500000D02*
G75*
G03*
X28650000Y4250000I0J750000D01*
G01*
X16025000Y3650000D02*
G75*
G03*
X16700000Y3500000I675001J1443754D01*
G01*
X28650000Y4250000D02*
X28650000Y17050000D01*
X28650000Y17050000D02*
G75*
G03*
X27900000Y17800000I-750000J0D01*
G01*
X16700000Y3500000D02*
X27900000Y3500000D01*
X3500445Y7724984D02*
G75*
G03*
X4000000Y7025000I704921J-25172D01*
G01*
X3500000Y7725000D02*
X3500000Y13625000D01*
X27900000Y17800000D02*
X16700000Y17800000D01*
X16700000Y17800000D02*
G75*
G03*
X16050000Y17675000I3J-1752517D01*
G01*
D12*
%TO.C,USBA_PLUG*%
X27700000Y16795000D02*
X28750000Y16795000D01*
X24530000Y15050000D02*
X23775000Y15050000D01*
X27700000Y4505000D02*
X28750000Y4505000D01*
X24530000Y15050000D02*
X24530000Y6250000D01*
%TD*%
%LPC*%
%TO.C,WHT*%
G36*
G01*
X17800000Y11150000D02*
X16300000Y11150000D01*
G75*
G02*
X16050000Y11400000I0J250000D01*
G01*
X16050000Y11900000D01*
G75*
G02*
X16300000Y12150000I250000J0D01*
G01*
X17800000Y12150000D01*
G75*
G02*
X18050000Y11900000I0J-250000D01*
G01*
X18050000Y11400000D01*
G75*
G02*
X17800000Y11150000I-250000J0D01*
G01*
G37*
%TD*%
%TO.C,SHD*%
G36*
G01*
X17852000Y4426400D02*
X16352000Y4426400D01*
G75*
G02*
X16102000Y4676400I0J250000D01*
G01*
X16102000Y5176400D01*
G75*
G02*
X16352000Y5426400I250000J0D01*
G01*
X17852000Y5426400D01*
G75*
G02*
X18102000Y5176400I0J-250000D01*
G01*
X18102000Y4676400D01*
G75*
G02*
X17852000Y4426400I-250000J0D01*
G01*
G37*
%TD*%
%TO.C,GRN*%
G36*
G01*
X17800000Y9150000D02*
X16300000Y9150000D01*
G75*
G02*
X16050000Y9400000I0J250000D01*
G01*
X16050000Y9900000D01*
G75*
G02*
X16300000Y10150000I250000J0D01*
G01*
X17800000Y10150000D01*
G75*
G02*
X18050000Y9900000I0J-250000D01*
G01*
X18050000Y9400000D01*
G75*
G02*
X17800000Y9150000I-250000J0D01*
G01*
G37*
%TD*%
%TO.C,BLK*%
G36*
G01*
X17800000Y6650000D02*
X16300000Y6650000D01*
G75*
G02*
X16050000Y6900000I0J250000D01*
G01*
X16050000Y7400000D01*
G75*
G02*
X16300000Y7650000I250000J0D01*
G01*
X17800000Y7650000D01*
G75*
G02*
X18050000Y7400000I0J-250000D01*
G01*
X18050000Y6900000D01*
G75*
G02*
X17800000Y6650000I-250000J0D01*
G01*
G37*
%TD*%
D13*
%TO.C,USBA_PLUG*%
X25650000Y8350000D03*
X25650000Y12950000D03*
D14*
X22900000Y14150000D03*
X22900000Y11650000D03*
X22900000Y9650000D03*
X22900000Y7150000D03*
D15*
X25650000Y4950000D03*
X25650000Y16350000D03*
%TD*%
%TO.C,*%
G36*
G01*
X6325000Y12250000D02*
X4225000Y12250000D01*
G75*
G02*
X3775000Y12700000I0J450000D01*
G01*
X3775000Y13600000D01*
G75*
G02*
X4225000Y14050000I450000J0D01*
G01*
X6325000Y14050000D01*
G75*
G02*
X6775000Y13600000I0J-450000D01*
G01*
X6775000Y12700000D01*
G75*
G02*
X6325000Y12250000I-450000J0D01*
G01*
G37*
%TD*%
%TO.C,RED*%
G36*
G01*
X17800000Y13650000D02*
X16300000Y13650000D01*
G75*
G02*
X16050000Y13900000I0J250000D01*
G01*
X16050000Y14400000D01*
G75*
G02*
X16300000Y14650000I250000J0D01*
G01*
X17800000Y14650000D01*
G75*
G02*
X18050000Y14400000I0J-250000D01*
G01*
X18050000Y13900000D01*
G75*
G02*
X17800000Y13650000I-250000J0D01*
G01*
G37*
%TD*%
%TO.C,*%
G36*
G01*
X6324999Y7275000D02*
X4224999Y7275000D01*
G75*
G02*
X3774999Y7725000I0J450000D01*
G01*
X3774999Y8625000D01*
G75*
G02*
X4224999Y9075000I450000J0D01*
G01*
X6324999Y9075000D01*
G75*
G02*
X6774999Y8625000I0J-450000D01*
G01*
X6774999Y7725000D01*
G75*
G02*
X6324999Y7275000I-450000J0D01*
G01*
G37*
%TD*%
M02*
