%TF.GenerationSoftware,KiCad,Pcbnew,(6.0.4-0)*%
%TF.CreationDate,2022-05-31T16:01:43+12:00*%
%TF.ProjectId,usba_caddy,75736261-5f63-4616-9464-792e6b696361,rev?*%
%TF.SameCoordinates,PX6bf4b80PY4944400*%
%TF.FileFunction,Copper,L2,Bot*%
%TF.FilePolarity,Positive*%
%FSLAX46Y46*%
G04 Gerber Fmt 4.6, Leading zero omitted, Abs format (unit mm)*
G04 Created by KiCad (PCBNEW (6.0.4-0)) date 2022-05-31 16:01:43*
%MOMM*%
%LPD*%
G01*
G04 APERTURE LIST*
%TA.AperFunction,Profile*%
%ADD10C,0.100000*%
%TD*%
%TA.AperFunction,ComponentPad*%
%ADD11O,3.500000X1.900000*%
%TD*%
G04 APERTURE END LIST*
D10*
X4025005Y14299979D02*
G75*
G03*
X3500000Y13625000I171395J-674979D01*
G01*
X16050000Y17675000D02*
X4025000Y14300000D01*
X16025000Y3650000D02*
X4000000Y7025000D01*
X27900000Y3500000D02*
G75*
G03*
X28650000Y4250000I0J750000D01*
G01*
X16024998Y3649996D02*
G75*
G03*
X16700000Y3500000I675002J1443804D01*
G01*
X28650000Y4250000D02*
X28650000Y17050000D01*
X28650000Y17050000D02*
G75*
G03*
X27900000Y17800000I-750000J0D01*
G01*
X16700000Y3500000D02*
X27900000Y3500000D01*
X3500482Y7724983D02*
G75*
G03*
X4000000Y7025000I704918J-25183D01*
G01*
X3500000Y7725000D02*
X3500000Y13625000D01*
X27900000Y17800000D02*
X16700000Y17800000D01*
X16700000Y17800000D02*
G75*
G03*
X16050000Y17675000I0J-1752500D01*
G01*
D11*
%TO.P,USBA_PLUG,5*%
%TO.N,shield*%
X25650000Y4950000D03*
X25650000Y16350000D03*
%TD*%
%TO.P,,1*%
%TO.N,shield*%
%TA.AperFunction,ComponentPad*%
G36*
G01*
X6325000Y12250000D02*
X4225000Y12250000D01*
G75*
G02*
X3775000Y12700000I0J450000D01*
G01*
X3775000Y13600000D01*
G75*
G02*
X4225000Y14050000I450000J0D01*
G01*
X6325000Y14050000D01*
G75*
G02*
X6775000Y13600000I0J-450000D01*
G01*
X6775000Y12700000D01*
G75*
G02*
X6325000Y12250000I-450000J0D01*
G01*
G37*
%TD.AperFunction*%
%TD*%
%TO.P,,1*%
%TO.N,shield*%
%TA.AperFunction,ComponentPad*%
G36*
G01*
X6324999Y7275000D02*
X4224999Y7275000D01*
G75*
G02*
X3774999Y7725000I0J450000D01*
G01*
X3774999Y8625000D01*
G75*
G02*
X4224999Y9075000I450000J0D01*
G01*
X6324999Y9075000D01*
G75*
G02*
X6774999Y8625000I0J-450000D01*
G01*
X6774999Y7725000D01*
G75*
G02*
X6324999Y7275000I-450000J0D01*
G01*
G37*
%TD.AperFunction*%
%TD*%
%TA.AperFunction,Conductor*%
%TO.N,shield*%
G36*
X23558888Y17271498D02*
G01*
X23605381Y17217842D01*
X23615485Y17147568D01*
X23601075Y17104606D01*
X23518074Y16954250D01*
X23513844Y16944838D01*
X23437264Y16728584D01*
X23434635Y16718634D01*
X23417393Y16621836D01*
X23418852Y16608540D01*
X23433408Y16604000D01*
X25778000Y16604000D01*
X25846121Y16583998D01*
X25892614Y16530342D01*
X25904000Y16478000D01*
X25904000Y14910115D01*
X25908475Y14894876D01*
X25909865Y14893671D01*
X25917548Y14892000D01*
X26508190Y14892000D01*
X26513363Y14892212D01*
X26683794Y14906224D01*
X26693956Y14907907D01*
X26916461Y14963796D01*
X26926216Y14967117D01*
X27136590Y15058591D01*
X27145688Y15063469D01*
X27338301Y15188075D01*
X27346461Y15194359D01*
X27516149Y15348763D01*
X27523170Y15356293D01*
X27665356Y15536332D01*
X27671061Y15544919D01*
X27781926Y15745750D01*
X27786156Y15755162D01*
X27862734Y15971409D01*
X27865368Y15981380D01*
X27891453Y16127823D01*
X27923091Y16191380D01*
X27984068Y16227744D01*
X28055025Y16225367D01*
X28113433Y16185006D01*
X28140748Y16119474D01*
X28141500Y16105727D01*
X28141500Y5191900D01*
X28121498Y5123779D01*
X28067842Y5077286D01*
X27997568Y5067182D01*
X27932988Y5096676D01*
X27894604Y5156402D01*
X27890950Y5172841D01*
X27873950Y5283933D01*
X27871561Y5293961D01*
X27800290Y5512016D01*
X27796293Y5521525D01*
X27690367Y5725007D01*
X27684873Y5733732D01*
X27547131Y5917187D01*
X27540288Y5924894D01*
X27374431Y6083391D01*
X27366425Y6089874D01*
X27176906Y6219155D01*
X27167947Y6224244D01*
X26959855Y6320837D01*
X26950187Y6324394D01*
X26729121Y6385701D01*
X26719001Y6387632D01*
X26531748Y6407644D01*
X26525056Y6408000D01*
X25922115Y6408000D01*
X25906876Y6403525D01*
X25905671Y6402135D01*
X25904000Y6394452D01*
X25904000Y4822000D01*
X25883998Y4753879D01*
X25830342Y4707386D01*
X25778000Y4696000D01*
X23431933Y4696000D01*
X23418589Y4692082D01*
X23416602Y4677806D01*
X23426050Y4616067D01*
X23428439Y4606039D01*
X23499710Y4387984D01*
X23503707Y4378475D01*
X23600426Y4192680D01*
X23614139Y4123021D01*
X23588014Y4057006D01*
X23530346Y4015594D01*
X23488663Y4008500D01*
X16749367Y4008500D01*
X16729982Y4010000D01*
X16715149Y4012310D01*
X16715145Y4012310D01*
X16706276Y4013691D01*
X16697374Y4012527D01*
X16697372Y4012527D01*
X16694273Y4012121D01*
X16691271Y4011729D01*
X16665762Y4011000D01*
X16616235Y4014616D01*
X16551529Y4019341D01*
X16533373Y4022006D01*
X16499021Y4029639D01*
X16397019Y4052306D01*
X16379458Y4057576D01*
X16279079Y4095868D01*
X16263784Y4103794D01*
X16263777Y4103780D01*
X16255692Y4107681D01*
X16248242Y4112689D01*
X16215390Y4123114D01*
X16209610Y4125341D01*
X16209552Y4125182D01*
X16204986Y4126853D01*
X16200549Y4128878D01*
X16173817Y4136381D01*
X16169808Y4137580D01*
X16117960Y4154034D01*
X16109408Y4156748D01*
X16102398Y4156908D01*
X16094052Y4158769D01*
X12539520Y5156402D01*
X12306381Y5221836D01*
X23417393Y5221836D01*
X23418852Y5208540D01*
X23433408Y5204000D01*
X25377885Y5204000D01*
X25393124Y5208475D01*
X25394329Y5209865D01*
X25396000Y5217548D01*
X25396000Y6389885D01*
X25391525Y6405124D01*
X25390135Y6406329D01*
X25382452Y6408000D01*
X24791810Y6408000D01*
X24786637Y6407788D01*
X24616206Y6393776D01*
X24606044Y6392093D01*
X24383539Y6336204D01*
X24373784Y6332883D01*
X24163410Y6241409D01*
X24154312Y6236531D01*
X23961699Y6111925D01*
X23953539Y6105641D01*
X23783851Y5951237D01*
X23776830Y5943707D01*
X23634644Y5763668D01*
X23628939Y5755081D01*
X23518074Y5554250D01*
X23513844Y5544838D01*
X23437264Y5328584D01*
X23434635Y5318634D01*
X23417393Y5221836D01*
X12306381Y5221836D01*
X6934320Y6729587D01*
X6874141Y6767250D01*
X6843877Y6831473D01*
X6853139Y6901863D01*
X6888735Y6948540D01*
X7000961Y7040069D01*
X7009930Y7049038D01*
X7124876Y7189976D01*
X7131864Y7200574D01*
X7216118Y7361738D01*
X7220836Y7373533D01*
X7271068Y7548714D01*
X7273254Y7560451D01*
X7282750Y7666845D01*
X7282999Y7672440D01*
X7282999Y7902885D01*
X7278524Y7918124D01*
X7277134Y7919329D01*
X7269451Y7921000D01*
X5146999Y7921000D01*
X5078878Y7941002D01*
X5032385Y7994658D01*
X5020999Y8047000D01*
X5020999Y8357425D01*
X24586404Y8357425D01*
X24605218Y8150697D01*
X24606956Y8144791D01*
X24606957Y8144787D01*
X24650473Y7996932D01*
X24663827Y7951560D01*
X24759999Y7767600D01*
X24890071Y7605823D01*
X24894788Y7601865D01*
X24894790Y7601863D01*
X24994620Y7518096D01*
X25049089Y7472391D01*
X25054481Y7469427D01*
X25054485Y7469424D01*
X25225598Y7375354D01*
X25230995Y7372387D01*
X25428861Y7309621D01*
X25434978Y7308935D01*
X25434982Y7308934D01*
X25511598Y7300341D01*
X25590413Y7291500D01*
X25702237Y7291500D01*
X25705293Y7291800D01*
X25705300Y7291800D01*
X25850466Y7306034D01*
X25850469Y7306035D01*
X25856592Y7306635D01*
X25997285Y7349112D01*
X26049407Y7364848D01*
X26049410Y7364849D01*
X26055315Y7366632D01*
X26062635Y7370524D01*
X26233153Y7461191D01*
X26233155Y7461192D01*
X26238599Y7464087D01*
X26336721Y7544113D01*
X26394689Y7591390D01*
X26394692Y7591393D01*
X26399464Y7595285D01*
X26531783Y7755230D01*
X26535876Y7762799D01*
X26627584Y7932410D01*
X26627586Y7932415D01*
X26630514Y7937830D01*
X26691898Y8136129D01*
X26693429Y8150697D01*
X26712952Y8336446D01*
X26712952Y8336448D01*
X26713596Y8342575D01*
X26694782Y8549303D01*
X26692298Y8557745D01*
X26637912Y8742531D01*
X26636173Y8748440D01*
X26540001Y8932400D01*
X26409929Y9094177D01*
X26397371Y9104715D01*
X26255629Y9223650D01*
X26250911Y9227609D01*
X26245519Y9230573D01*
X26245515Y9230576D01*
X26074402Y9324646D01*
X26069005Y9327613D01*
X25871139Y9390379D01*
X25865022Y9391065D01*
X25865018Y9391066D01*
X25788402Y9399659D01*
X25709587Y9408500D01*
X25597763Y9408500D01*
X25594707Y9408200D01*
X25594700Y9408200D01*
X25449534Y9393966D01*
X25449531Y9393965D01*
X25443408Y9393365D01*
X25311454Y9353526D01*
X25250593Y9335152D01*
X25250590Y9335151D01*
X25244685Y9333368D01*
X25239240Y9330473D01*
X25239238Y9330472D01*
X25066847Y9238809D01*
X25066845Y9238808D01*
X25061401Y9235913D01*
X25046365Y9223650D01*
X24905311Y9108610D01*
X24905308Y9108607D01*
X24900536Y9104715D01*
X24768217Y8944770D01*
X24765288Y8939353D01*
X24765286Y8939350D01*
X24672416Y8767590D01*
X24672414Y8767585D01*
X24669486Y8762170D01*
X24608102Y8563871D01*
X24607458Y8557746D01*
X24607458Y8557745D01*
X24595351Y8442548D01*
X24586404Y8357425D01*
X5020999Y8357425D01*
X5020999Y8447115D01*
X5528999Y8447115D01*
X5533474Y8431876D01*
X5534864Y8430671D01*
X5542547Y8429000D01*
X7264884Y8429000D01*
X7280123Y8433475D01*
X7281328Y8434865D01*
X7282999Y8442548D01*
X7282999Y8677560D01*
X7282750Y8683155D01*
X7273254Y8789549D01*
X7271068Y8801286D01*
X7220836Y8976467D01*
X7216118Y8988262D01*
X7131864Y9149426D01*
X7124876Y9160024D01*
X7009930Y9300962D01*
X7000961Y9309931D01*
X6860023Y9424877D01*
X6849425Y9431865D01*
X6688261Y9516119D01*
X6676466Y9520837D01*
X6501285Y9571069D01*
X6489548Y9573255D01*
X6383154Y9582751D01*
X6377559Y9583000D01*
X5547114Y9583000D01*
X5531875Y9578525D01*
X5530670Y9577135D01*
X5528999Y9569452D01*
X5528999Y8447115D01*
X5020999Y8447115D01*
X5020999Y9564885D01*
X5016524Y9580124D01*
X5015134Y9581329D01*
X5007451Y9583000D01*
X4172439Y9583000D01*
X4166840Y9582751D01*
X4145699Y9580864D01*
X4076070Y9594732D01*
X4024992Y9644042D01*
X4008500Y9706365D01*
X4008500Y11618635D01*
X4028502Y11686756D01*
X4082158Y11733249D01*
X4145699Y11744136D01*
X4166840Y11742249D01*
X4172440Y11742000D01*
X5002885Y11742000D01*
X5018124Y11746475D01*
X5019329Y11747865D01*
X5021000Y11755548D01*
X5021000Y11760115D01*
X5529000Y11760115D01*
X5533475Y11744876D01*
X5534865Y11743671D01*
X5542548Y11742000D01*
X6377560Y11742000D01*
X6383155Y11742249D01*
X6489549Y11751745D01*
X6501286Y11753931D01*
X6676467Y11804163D01*
X6688262Y11808881D01*
X6849426Y11893135D01*
X6860024Y11900123D01*
X7000962Y12015069D01*
X7009931Y12024038D01*
X7124877Y12164976D01*
X7131865Y12175574D01*
X7216119Y12336738D01*
X7220837Y12348533D01*
X7271069Y12523714D01*
X7273255Y12535451D01*
X7282751Y12641845D01*
X7283000Y12647440D01*
X7283000Y12877885D01*
X7278525Y12893124D01*
X7277135Y12894329D01*
X7269452Y12896000D01*
X5547115Y12896000D01*
X5531876Y12891525D01*
X5530671Y12890135D01*
X5529000Y12882452D01*
X5529000Y11760115D01*
X5021000Y11760115D01*
X5021000Y12957425D01*
X24586404Y12957425D01*
X24605218Y12750697D01*
X24606956Y12744791D01*
X24606957Y12744787D01*
X24635608Y12647440D01*
X24663827Y12551560D01*
X24759999Y12367600D01*
X24890071Y12205823D01*
X24894788Y12201865D01*
X24894790Y12201863D01*
X24998681Y12114688D01*
X25049089Y12072391D01*
X25054481Y12069427D01*
X25054485Y12069424D01*
X25137042Y12024038D01*
X25230995Y11972387D01*
X25428861Y11909621D01*
X25434978Y11908935D01*
X25434982Y11908934D01*
X25511598Y11900341D01*
X25590413Y11891500D01*
X25702237Y11891500D01*
X25705293Y11891800D01*
X25705300Y11891800D01*
X25850466Y11906034D01*
X25850469Y11906035D01*
X25856592Y11906635D01*
X25988546Y11946474D01*
X26049407Y11964848D01*
X26049410Y11964849D01*
X26055315Y11966632D01*
X26062635Y11970524D01*
X26233153Y12061191D01*
X26233155Y12061192D01*
X26238599Y12064087D01*
X26298471Y12112917D01*
X26394689Y12191390D01*
X26394692Y12191393D01*
X26399464Y12195285D01*
X26531783Y12355230D01*
X26535876Y12362799D01*
X26627584Y12532410D01*
X26627586Y12532415D01*
X26630514Y12537830D01*
X26691898Y12736129D01*
X26693429Y12750697D01*
X26712952Y12936446D01*
X26712952Y12936448D01*
X26713596Y12942575D01*
X26694782Y13149303D01*
X26692298Y13157745D01*
X26637912Y13342531D01*
X26636173Y13348440D01*
X26540001Y13532400D01*
X26409929Y13694177D01*
X26397371Y13704715D01*
X26255629Y13823650D01*
X26250911Y13827609D01*
X26245519Y13830573D01*
X26245515Y13830576D01*
X26074402Y13924646D01*
X26069005Y13927613D01*
X25871139Y13990379D01*
X25865022Y13991065D01*
X25865018Y13991066D01*
X25788402Y13999659D01*
X25709587Y14008500D01*
X25597763Y14008500D01*
X25594707Y14008200D01*
X25594700Y14008200D01*
X25449534Y13993966D01*
X25449531Y13993965D01*
X25443408Y13993365D01*
X25311454Y13953526D01*
X25250593Y13935152D01*
X25250590Y13935151D01*
X25244685Y13933368D01*
X25239240Y13930473D01*
X25239238Y13930472D01*
X25066847Y13838809D01*
X25066845Y13838808D01*
X25061401Y13835913D01*
X25046365Y13823650D01*
X24905311Y13708610D01*
X24905308Y13708607D01*
X24900536Y13704715D01*
X24896608Y13699967D01*
X24896607Y13699966D01*
X24806941Y13591579D01*
X24768217Y13544770D01*
X24765288Y13539353D01*
X24765286Y13539350D01*
X24672416Y13367590D01*
X24672414Y13367585D01*
X24669486Y13362170D01*
X24608102Y13163871D01*
X24607458Y13157746D01*
X24607458Y13157745D01*
X24605926Y13143164D01*
X24586404Y12957425D01*
X5021000Y12957425D01*
X5021000Y13278000D01*
X5041002Y13346121D01*
X5094658Y13392614D01*
X5147000Y13404000D01*
X7264885Y13404000D01*
X7280124Y13408475D01*
X7281329Y13409865D01*
X7283000Y13417548D01*
X7283000Y13652560D01*
X7282751Y13658155D01*
X7273255Y13764549D01*
X7271069Y13776286D01*
X7220837Y13951467D01*
X7216119Y13963262D01*
X7131865Y14124426D01*
X7124877Y14135024D01*
X7009931Y14275962D01*
X7000958Y14284935D01*
X6895138Y14371239D01*
X6854990Y14429793D01*
X6852872Y14500758D01*
X6889457Y14561603D01*
X6940725Y14590194D01*
X12241031Y16077806D01*
X23416602Y16077806D01*
X23426050Y16016067D01*
X23428439Y16006039D01*
X23499710Y15787984D01*
X23503707Y15778475D01*
X23609633Y15574993D01*
X23615127Y15566268D01*
X23752869Y15382813D01*
X23759712Y15375106D01*
X23925569Y15216609D01*
X23933575Y15210126D01*
X24123094Y15080845D01*
X24132053Y15075756D01*
X24340145Y14979163D01*
X24349813Y14975606D01*
X24570879Y14914299D01*
X24580999Y14912368D01*
X24768252Y14892356D01*
X24774944Y14892000D01*
X25377885Y14892000D01*
X25393124Y14896475D01*
X25394329Y14897865D01*
X25396000Y14905548D01*
X25396000Y16077885D01*
X25391525Y16093124D01*
X25390135Y16094329D01*
X25382452Y16096000D01*
X23431933Y16096000D01*
X23418589Y16092082D01*
X23416602Y16077806D01*
X12241031Y16077806D01*
X16171884Y17181060D01*
X16177758Y17182558D01*
X16225955Y17193615D01*
X16234699Y17195621D01*
X16243611Y17200606D01*
X16249370Y17203827D01*
X16271650Y17213599D01*
X16284600Y17217842D01*
X16380639Y17249311D01*
X16396072Y17253307D01*
X16503841Y17274032D01*
X16535016Y17280027D01*
X16550837Y17282041D01*
X16658099Y17288843D01*
X16682852Y17287715D01*
X16684852Y17287691D01*
X16693724Y17286309D01*
X16702626Y17287473D01*
X16702628Y17287473D01*
X16717677Y17289441D01*
X16725286Y17290436D01*
X16741621Y17291500D01*
X23490767Y17291500D01*
X23558888Y17271498D01*
G37*
%TD.AperFunction*%
%TD*%
M02*
