%TF.GenerationSoftware,KiCad,Pcbnew,(6.0.1-0)*%
%TF.CreationDate,2022-05-31T21:37:02+12:00*%
%TF.ProjectId,usba_caddy,75736261-5f63-4616-9464-792e6b696361,rev?*%
%TF.SameCoordinates,PX6bf4b80PY4944400*%
%TF.FileFunction,Soldermask,Top*%
%TF.FilePolarity,Negative*%
%FSLAX46Y46*%
G04 Gerber Fmt 4.6, Leading zero omitted, Abs format (unit mm)*
G04 Created by KiCad (PCBNEW (6.0.1-0)) date 2022-05-31 21:37:02*
%MOMM*%
%LPD*%
G01*
G04 APERTURE LIST*
%TA.AperFunction,Profile*%
%ADD10C,0.100000*%
%TD*%
%ADD11C,1.100000*%
%ADD12R,2.500000X1.100000*%
%ADD13O,3.500000X1.900000*%
G04 APERTURE END LIST*
D10*
X4025000Y14300001D02*
G75*
G03*
X3500000Y13625000I171428J-675000D01*
G01*
X16050000Y17675000D02*
X4025000Y14300000D01*
X16025000Y3650000D02*
X4000000Y7025000D01*
X27900000Y3500000D02*
G75*
G03*
X28650000Y4250000I0J750000D01*
G01*
X16025000Y3650000D02*
G75*
G03*
X16700000Y3500000I675001J1443754D01*
G01*
X28650000Y4250000D02*
X28650000Y17050000D01*
X28650000Y17050000D02*
G75*
G03*
X27900000Y17800000I-750000J0D01*
G01*
X16700000Y3500000D02*
X27900000Y3500000D01*
X3500445Y7724984D02*
G75*
G03*
X4000000Y7025000I704921J-25172D01*
G01*
X3500000Y7725000D02*
X3500000Y13625000D01*
X27900000Y17800000D02*
X16700000Y17800000D01*
X16700000Y17800000D02*
G75*
G03*
X16050000Y17675000I3J-1752517D01*
G01*
%TO.C,WHT*%
G36*
G01*
X17800000Y11150000D02*
X16300000Y11150000D01*
G75*
G02*
X16050000Y11400000I0J250000D01*
G01*
X16050000Y11900000D01*
G75*
G02*
X16300000Y12150000I250000J0D01*
G01*
X17800000Y12150000D01*
G75*
G02*
X18050000Y11900000I0J-250000D01*
G01*
X18050000Y11400000D01*
G75*
G02*
X17800000Y11150000I-250000J0D01*
G01*
G37*
%TD*%
%TO.C,SHD*%
G36*
G01*
X17852000Y4426400D02*
X16352000Y4426400D01*
G75*
G02*
X16102000Y4676400I0J250000D01*
G01*
X16102000Y5176400D01*
G75*
G02*
X16352000Y5426400I250000J0D01*
G01*
X17852000Y5426400D01*
G75*
G02*
X18102000Y5176400I0J-250000D01*
G01*
X18102000Y4676400D01*
G75*
G02*
X17852000Y4426400I-250000J0D01*
G01*
G37*
%TD*%
%TO.C,GRN*%
G36*
G01*
X17800000Y9150000D02*
X16300000Y9150000D01*
G75*
G02*
X16050000Y9400000I0J250000D01*
G01*
X16050000Y9900000D01*
G75*
G02*
X16300000Y10150000I250000J0D01*
G01*
X17800000Y10150000D01*
G75*
G02*
X18050000Y9900000I0J-250000D01*
G01*
X18050000Y9400000D01*
G75*
G02*
X17800000Y9150000I-250000J0D01*
G01*
G37*
%TD*%
%TO.C,BLK*%
G36*
G01*
X17800000Y6650000D02*
X16300000Y6650000D01*
G75*
G02*
X16050000Y6900000I0J250000D01*
G01*
X16050000Y7400000D01*
G75*
G02*
X16300000Y7650000I250000J0D01*
G01*
X17800000Y7650000D01*
G75*
G02*
X18050000Y7400000I0J-250000D01*
G01*
X18050000Y6900000D01*
G75*
G02*
X17800000Y6650000I-250000J0D01*
G01*
G37*
%TD*%
D11*
%TO.C,USBA_PLUG*%
X25650000Y8350000D03*
X25650000Y12950000D03*
D12*
X22900000Y14150000D03*
X22900000Y11650000D03*
X22900000Y9650000D03*
X22900000Y7150000D03*
D13*
X25650000Y4950000D03*
X25650000Y16350000D03*
%TD*%
%TO.C,*%
G36*
G01*
X6325000Y12250000D02*
X4225000Y12250000D01*
G75*
G02*
X3775000Y12700000I0J450000D01*
G01*
X3775000Y13600000D01*
G75*
G02*
X4225000Y14050000I450000J0D01*
G01*
X6325000Y14050000D01*
G75*
G02*
X6775000Y13600000I0J-450000D01*
G01*
X6775000Y12700000D01*
G75*
G02*
X6325000Y12250000I-450000J0D01*
G01*
G37*
%TD*%
%TO.C,RED*%
G36*
G01*
X17800000Y13650000D02*
X16300000Y13650000D01*
G75*
G02*
X16050000Y13900000I0J250000D01*
G01*
X16050000Y14400000D01*
G75*
G02*
X16300000Y14650000I250000J0D01*
G01*
X17800000Y14650000D01*
G75*
G02*
X18050000Y14400000I0J-250000D01*
G01*
X18050000Y13900000D01*
G75*
G02*
X17800000Y13650000I-250000J0D01*
G01*
G37*
%TD*%
%TO.C,*%
G36*
G01*
X6324999Y7275000D02*
X4224999Y7275000D01*
G75*
G02*
X3774999Y7725000I0J450000D01*
G01*
X3774999Y8625000D01*
G75*
G02*
X4224999Y9075000I450000J0D01*
G01*
X6324999Y9075000D01*
G75*
G02*
X6774999Y8625000I0J-450000D01*
G01*
X6774999Y7725000D01*
G75*
G02*
X6324999Y7275000I-450000J0D01*
G01*
G37*
%TD*%
M02*
