%TF.GenerationSoftware,KiCad,Pcbnew,(6.0.4-0)*%
%TF.CreationDate,2022-05-31T14:07:51+12:00*%
%TF.ProjectId,usba_caddy,75736261-5f63-4616-9464-792e6b696361,rev?*%
%TF.SameCoordinates,PX6bf4b80PY4944400*%
%TF.FileFunction,Legend,Bot*%
%TF.FilePolarity,Positive*%
%FSLAX46Y46*%
G04 Gerber Fmt 4.6, Leading zero omitted, Abs format (unit mm)*
G04 Created by KiCad (PCBNEW (6.0.4-0)) date 2022-05-31 14:07:51*
%MOMM*%
%LPD*%
G01*
G04 APERTURE LIST*
%ADD10C,0.125000*%
%TA.AperFunction,Profile*%
%ADD11C,0.100000*%
%TD*%
G04 APERTURE END LIST*
D10*
X26825000Y10408334D02*
X26825000Y11108334D01*
X26525000Y10408334D02*
X26525000Y10775000D01*
X26558333Y10841667D01*
X26625000Y10875000D01*
X26725000Y10875000D01*
X26791666Y10841667D01*
X26825000Y10808334D01*
X26291666Y10875000D02*
X26025000Y10875000D01*
X26191666Y11108334D02*
X26191666Y10508334D01*
X26158333Y10441667D01*
X26091666Y10408334D01*
X26025000Y10408334D01*
X25891666Y10875000D02*
X25625000Y10875000D01*
X25791666Y11108334D02*
X25791666Y10508334D01*
X25758333Y10441667D01*
X25691666Y10408334D01*
X25625000Y10408334D01*
X25391666Y10875000D02*
X25391666Y10175000D01*
X25391666Y10841667D02*
X25325000Y10875000D01*
X25191666Y10875000D01*
X25125000Y10841667D01*
X25091666Y10808334D01*
X25058333Y10741667D01*
X25058333Y10541667D01*
X25091666Y10475000D01*
X25125000Y10441667D01*
X25191666Y10408334D01*
X25325000Y10408334D01*
X25391666Y10441667D01*
X24791666Y10441667D02*
X24725000Y10408334D01*
X24591666Y10408334D01*
X24525000Y10441667D01*
X24491666Y10508334D01*
X24491666Y10541667D01*
X24525000Y10608334D01*
X24591666Y10641667D01*
X24691666Y10641667D01*
X24758333Y10675000D01*
X24791666Y10741667D01*
X24791666Y10775000D01*
X24758333Y10841667D01*
X24691666Y10875000D01*
X24591666Y10875000D01*
X24525000Y10841667D01*
X24191666Y10475000D02*
X24158333Y10441667D01*
X24191666Y10408334D01*
X24225000Y10441667D01*
X24191666Y10475000D01*
X24191666Y10408334D01*
X24191666Y10841667D02*
X24158333Y10808334D01*
X24191666Y10775000D01*
X24225000Y10808334D01*
X24191666Y10841667D01*
X24191666Y10775000D01*
X23358333Y11141667D02*
X23958333Y10241667D01*
X22625000Y11141667D02*
X23225000Y10241667D01*
X22091666Y10875000D02*
X22091666Y10308334D01*
X22125000Y10241667D01*
X22158333Y10208334D01*
X22225000Y10175000D01*
X22325000Y10175000D01*
X22391666Y10208334D01*
X22091666Y10441667D02*
X22158333Y10408334D01*
X22291666Y10408334D01*
X22358333Y10441667D01*
X22391666Y10475000D01*
X22425000Y10541667D01*
X22425000Y10741667D01*
X22391666Y10808334D01*
X22358333Y10841667D01*
X22291666Y10875000D01*
X22158333Y10875000D01*
X22091666Y10841667D01*
X21758333Y10408334D02*
X21758333Y10875000D01*
X21758333Y11108334D02*
X21791666Y11075000D01*
X21758333Y11041667D01*
X21725000Y11075000D01*
X21758333Y11108334D01*
X21758333Y11041667D01*
X21525000Y10875000D02*
X21258333Y10875000D01*
X21425000Y11108334D02*
X21425000Y10508334D01*
X21391666Y10441667D01*
X21325000Y10408334D01*
X21258333Y10408334D01*
X21025000Y10408334D02*
X21025000Y11108334D01*
X20725000Y10408334D02*
X20725000Y10775000D01*
X20758333Y10841667D01*
X20825000Y10875000D01*
X20925000Y10875000D01*
X20991666Y10841667D01*
X21025000Y10808334D01*
X20091666Y10875000D02*
X20091666Y10408334D01*
X20391666Y10875000D02*
X20391666Y10508334D01*
X20358333Y10441667D01*
X20291666Y10408334D01*
X20191666Y10408334D01*
X20125000Y10441667D01*
X20091666Y10475000D01*
X19758333Y10408334D02*
X19758333Y11108334D01*
X19758333Y10841667D02*
X19691666Y10875000D01*
X19558333Y10875000D01*
X19491666Y10841667D01*
X19458333Y10808334D01*
X19425000Y10741667D01*
X19425000Y10541667D01*
X19458333Y10475000D01*
X19491666Y10441667D01*
X19558333Y10408334D01*
X19691666Y10408334D01*
X19758333Y10441667D01*
X19125000Y10475000D02*
X19091666Y10441667D01*
X19125000Y10408334D01*
X19158333Y10441667D01*
X19125000Y10475000D01*
X19125000Y10408334D01*
X18491666Y10441667D02*
X18558333Y10408334D01*
X18691666Y10408334D01*
X18758333Y10441667D01*
X18791666Y10475000D01*
X18825000Y10541667D01*
X18825000Y10741667D01*
X18791666Y10808334D01*
X18758333Y10841667D01*
X18691666Y10875000D01*
X18558333Y10875000D01*
X18491666Y10841667D01*
X18091666Y10408334D02*
X18158333Y10441667D01*
X18191666Y10475000D01*
X18225000Y10541667D01*
X18225000Y10741667D01*
X18191666Y10808334D01*
X18158333Y10841667D01*
X18091666Y10875000D01*
X17991666Y10875000D01*
X17925000Y10841667D01*
X17891666Y10808334D01*
X17858333Y10741667D01*
X17858333Y10541667D01*
X17891666Y10475000D01*
X17925000Y10441667D01*
X17991666Y10408334D01*
X18091666Y10408334D01*
X17558333Y10408334D02*
X17558333Y10875000D01*
X17558333Y10808334D02*
X17525000Y10841667D01*
X17458333Y10875000D01*
X17358333Y10875000D01*
X17291666Y10841667D01*
X17258333Y10775000D01*
X17258333Y10408334D01*
X17258333Y10775000D02*
X17225000Y10841667D01*
X17158333Y10875000D01*
X17058333Y10875000D01*
X16991666Y10841667D01*
X16958333Y10775000D01*
X16958333Y10408334D01*
X16125000Y11141667D02*
X16725000Y10241667D01*
X15591666Y10875000D02*
X15591666Y10308334D01*
X15625000Y10241667D01*
X15658333Y10208334D01*
X15725000Y10175000D01*
X15825000Y10175000D01*
X15891666Y10208334D01*
X15591666Y10441667D02*
X15658333Y10408334D01*
X15791666Y10408334D01*
X15858333Y10441667D01*
X15891666Y10475000D01*
X15925000Y10541667D01*
X15925000Y10741667D01*
X15891666Y10808334D01*
X15858333Y10841667D01*
X15791666Y10875000D01*
X15658333Y10875000D01*
X15591666Y10841667D01*
X15258333Y10408334D02*
X15258333Y10875000D01*
X15258333Y10741667D02*
X15225000Y10808334D01*
X15191666Y10841667D01*
X15125000Y10875000D01*
X15058333Y10875000D01*
X14525000Y10875000D02*
X14525000Y10408334D01*
X14825000Y10875000D02*
X14825000Y10508334D01*
X14791666Y10441667D01*
X14725000Y10408334D01*
X14625000Y10408334D01*
X14558333Y10441667D01*
X14525000Y10475000D01*
X14258333Y10875000D02*
X14091666Y10408334D01*
X13925000Y10875000D01*
X13658333Y10408334D02*
X13658333Y10875000D01*
X13658333Y11108334D02*
X13691666Y11075000D01*
X13658333Y11041667D01*
X13625000Y11075000D01*
X13658333Y11108334D01*
X13658333Y11041667D01*
X13325000Y10875000D02*
X13325000Y10408334D01*
X13325000Y10808334D02*
X13291666Y10841667D01*
X13225000Y10875000D01*
X13125000Y10875000D01*
X13058333Y10841667D01*
X13025000Y10775000D01*
X13025000Y10408334D01*
X12191666Y11141667D02*
X12791666Y10241667D01*
X11958333Y11108334D02*
X11958333Y10541667D01*
X11925000Y10475000D01*
X11891666Y10441667D01*
X11825000Y10408334D01*
X11691666Y10408334D01*
X11625000Y10441667D01*
X11591666Y10475000D01*
X11558333Y10541667D01*
X11558333Y11108334D01*
X11258333Y10441667D02*
X11158333Y10408334D01*
X10991666Y10408334D01*
X10925000Y10441667D01*
X10891666Y10475000D01*
X10858333Y10541667D01*
X10858333Y10608334D01*
X10891666Y10675000D01*
X10925000Y10708334D01*
X10991666Y10741667D01*
X11125000Y10775000D01*
X11191666Y10808334D01*
X11225000Y10841667D01*
X11258333Y10908334D01*
X11258333Y10975000D01*
X11225000Y11041667D01*
X11191666Y11075000D01*
X11125000Y11108334D01*
X10958333Y11108334D01*
X10858333Y11075000D01*
X10325000Y10775000D02*
X10225000Y10741667D01*
X10191666Y10708334D01*
X10158333Y10641667D01*
X10158333Y10541667D01*
X10191666Y10475000D01*
X10225000Y10441667D01*
X10291666Y10408334D01*
X10558333Y10408334D01*
X10558333Y11108334D01*
X10325000Y11108334D01*
X10258333Y11075000D01*
X10225000Y11041667D01*
X10191666Y10975000D01*
X10191666Y10908334D01*
X10225000Y10841667D01*
X10258333Y10808334D01*
X10325000Y10775000D01*
X10558333Y10775000D01*
X9891666Y10608334D02*
X9558333Y10608334D01*
X9958333Y10408334D02*
X9725000Y11108334D01*
X9491666Y10408334D01*
X9425000Y10341667D02*
X8891666Y10341667D01*
X8325000Y10475000D02*
X8358333Y10441667D01*
X8458333Y10408334D01*
X8525000Y10408334D01*
X8625000Y10441667D01*
X8691666Y10508334D01*
X8725000Y10575000D01*
X8758333Y10708334D01*
X8758333Y10808334D01*
X8725000Y10941667D01*
X8691666Y11008334D01*
X8625000Y11075000D01*
X8525000Y11108334D01*
X8458333Y11108334D01*
X8358333Y11075000D01*
X8325000Y11041667D01*
X7725000Y10408334D02*
X7725000Y10775000D01*
X7758333Y10841667D01*
X7825000Y10875000D01*
X7958333Y10875000D01*
X8025000Y10841667D01*
X7725000Y10441667D02*
X7791666Y10408334D01*
X7958333Y10408334D01*
X8025000Y10441667D01*
X8058333Y10508334D01*
X8058333Y10575000D01*
X8025000Y10641667D01*
X7958333Y10675000D01*
X7791666Y10675000D01*
X7725000Y10708334D01*
X7091666Y10408334D02*
X7091666Y11108334D01*
X7091666Y10441667D02*
X7158333Y10408334D01*
X7291666Y10408334D01*
X7358333Y10441667D01*
X7391666Y10475000D01*
X7425000Y10541667D01*
X7425000Y10741667D01*
X7391666Y10808334D01*
X7358333Y10841667D01*
X7291666Y10875000D01*
X7158333Y10875000D01*
X7091666Y10841667D01*
X6458333Y10408334D02*
X6458333Y11108334D01*
X6458333Y10441667D02*
X6525000Y10408334D01*
X6658333Y10408334D01*
X6725000Y10441667D01*
X6758333Y10475000D01*
X6791666Y10541667D01*
X6791666Y10741667D01*
X6758333Y10808334D01*
X6725000Y10841667D01*
X6658333Y10875000D01*
X6525000Y10875000D01*
X6458333Y10841667D01*
X6191666Y10875000D02*
X6025000Y10408334D01*
X5858333Y10875000D02*
X6025000Y10408334D01*
X6091666Y10241667D01*
X6125000Y10208334D01*
X6191666Y10175000D01*
D11*
X4025005Y14299979D02*
G75*
G03*
X3500000Y13625000I171395J-674979D01*
G01*
X16050000Y17675000D02*
X4025000Y14300000D01*
X16025000Y3650000D02*
X4000000Y7025000D01*
X27900000Y3500000D02*
G75*
G03*
X28650000Y4250000I0J750000D01*
G01*
X16024998Y3649996D02*
G75*
G03*
X16700000Y3500000I675002J1443804D01*
G01*
X28650000Y4250000D02*
X28650000Y17050000D01*
X28650000Y17050000D02*
G75*
G03*
X27900000Y17800000I-750000J0D01*
G01*
X16700000Y3500000D02*
X27900000Y3500000D01*
X3500482Y7724983D02*
G75*
G03*
X4000000Y7025000I704918J-25183D01*
G01*
X3500000Y7725000D02*
X3500000Y13625000D01*
X27900000Y17800000D02*
X16700000Y17800000D01*
X16700000Y17800000D02*
G75*
G03*
X16050000Y17675000I0J-1752500D01*
G01*
M02*
