%TF.GenerationSoftware,KiCad,Pcbnew,(6.0.1-0)*%
%TF.CreationDate,2022-05-31T21:37:02+12:00*%
%TF.ProjectId,usba_caddy,75736261-5f63-4616-9464-792e6b696361,rev?*%
%TF.SameCoordinates,PX6bf4b80PY4944400*%
%TF.FileFunction,Other,Comment*%
%FSLAX46Y46*%
G04 Gerber Fmt 4.6, Leading zero omitted, Abs format (unit mm)*
G04 Created by KiCad (PCBNEW (6.0.1-0)) date 2022-05-31 21:37:02*
%MOMM*%
%LPD*%
G01*
G04 APERTURE LIST*
%ADD10C,0.150000*%
%TA.AperFunction,Profile*%
%ADD11C,0.100000*%
%TD*%
G04 APERTURE END LIST*
D10*
X1125000Y12025000D02*
X2900000Y12750000D01*
X1125000Y9100000D02*
X2950000Y8425000D01*
D11*
X4025000Y14300001D02*
G75*
G03*
X3500000Y13625000I171428J-675000D01*
G01*
X16050000Y17675000D02*
X4025000Y14300000D01*
X16025000Y3650000D02*
X4000000Y7025000D01*
X27900000Y3500000D02*
G75*
G03*
X28650000Y4250000I0J750000D01*
G01*
X16025000Y3650000D02*
G75*
G03*
X16700000Y3500000I675001J1443754D01*
G01*
X28650000Y4250000D02*
X28650000Y17050000D01*
X28650000Y17050000D02*
G75*
G03*
X27900000Y17800000I-750000J0D01*
G01*
X16700000Y3500000D02*
X27900000Y3500000D01*
X3500445Y7724984D02*
G75*
G03*
X4000000Y7025000I704921J-25172D01*
G01*
X3500000Y7725000D02*
X3500000Y13625000D01*
X27900000Y17800000D02*
X16700000Y17800000D01*
X16700000Y17800000D02*
G75*
G03*
X16050000Y17675000I3J-1752517D01*
G01*
D10*
X-8705953Y10997858D02*
X-8753572Y10950239D01*
X-8896429Y10902620D01*
X-8991667Y10902620D01*
X-9134524Y10950239D01*
X-9229762Y11045477D01*
X-9277381Y11140715D01*
X-9325000Y11331191D01*
X-9325000Y11474048D01*
X-9277381Y11664524D01*
X-9229762Y11759762D01*
X-9134524Y11855000D01*
X-8991667Y11902620D01*
X-8896429Y11902620D01*
X-8753572Y11855000D01*
X-8705953Y11807381D01*
X-7848810Y10902620D02*
X-7848810Y11426429D01*
X-7896429Y11521667D01*
X-7991667Y11569286D01*
X-8182143Y11569286D01*
X-8277381Y11521667D01*
X-7848810Y10950239D02*
X-7944048Y10902620D01*
X-8182143Y10902620D01*
X-8277381Y10950239D01*
X-8325000Y11045477D01*
X-8325000Y11140715D01*
X-8277381Y11235953D01*
X-8182143Y11283572D01*
X-7944048Y11283572D01*
X-7848810Y11331191D01*
X-7372620Y10902620D02*
X-7372620Y11902620D01*
X-7372620Y11521667D02*
X-7277381Y11569286D01*
X-7086905Y11569286D01*
X-6991667Y11521667D01*
X-6944048Y11474048D01*
X-6896429Y11378810D01*
X-6896429Y11093096D01*
X-6944048Y10997858D01*
X-6991667Y10950239D01*
X-7086905Y10902620D01*
X-7277381Y10902620D01*
X-7372620Y10950239D01*
X-6325000Y10902620D02*
X-6420239Y10950239D01*
X-6467858Y11045477D01*
X-6467858Y11902620D01*
X-5563096Y10950239D02*
X-5658334Y10902620D01*
X-5848810Y10902620D01*
X-5944048Y10950239D01*
X-5991667Y11045477D01*
X-5991667Y11426429D01*
X-5944048Y11521667D01*
X-5848810Y11569286D01*
X-5658334Y11569286D01*
X-5563096Y11521667D01*
X-5515477Y11426429D01*
X-5515477Y11331191D01*
X-5991667Y11235953D01*
X-4372620Y10950239D02*
X-4229762Y10902620D01*
X-3991667Y10902620D01*
X-3896429Y10950239D01*
X-3848810Y10997858D01*
X-3801191Y11093096D01*
X-3801191Y11188334D01*
X-3848810Y11283572D01*
X-3896429Y11331191D01*
X-3991667Y11378810D01*
X-4182143Y11426429D01*
X-4277381Y11474048D01*
X-4325000Y11521667D01*
X-4372620Y11616905D01*
X-4372620Y11712143D01*
X-4325000Y11807381D01*
X-4277381Y11855000D01*
X-4182143Y11902620D01*
X-3944048Y11902620D01*
X-3801191Y11855000D01*
X-3515477Y11569286D02*
X-3134524Y11569286D01*
X-3372620Y11902620D02*
X-3372620Y11045477D01*
X-3325000Y10950239D01*
X-3229762Y10902620D01*
X-3134524Y10902620D01*
X-2801191Y10902620D02*
X-2801191Y11569286D01*
X-2801191Y11378810D02*
X-2753572Y11474048D01*
X-2705953Y11521667D01*
X-2610715Y11569286D01*
X-2515477Y11569286D01*
X-1753572Y10902620D02*
X-1753572Y11426429D01*
X-1801191Y11521667D01*
X-1896429Y11569286D01*
X-2086905Y11569286D01*
X-2182143Y11521667D01*
X-1753572Y10950239D02*
X-1848810Y10902620D01*
X-2086905Y10902620D01*
X-2182143Y10950239D01*
X-2229762Y11045477D01*
X-2229762Y11140715D01*
X-2182143Y11235953D01*
X-2086905Y11283572D01*
X-1848810Y11283572D01*
X-1753572Y11331191D01*
X-1277381Y10902620D02*
X-1277381Y11569286D01*
X-1277381Y11902620D02*
X-1325000Y11855000D01*
X-1277381Y11807381D01*
X-1229762Y11855000D01*
X-1277381Y11902620D01*
X-1277381Y11807381D01*
X-801191Y11569286D02*
X-801191Y10902620D01*
X-801191Y11474048D02*
X-753572Y11521667D01*
X-658334Y11569286D01*
X-515477Y11569286D01*
X-420239Y11521667D01*
X-372620Y11426429D01*
X-372620Y10902620D01*
X-9467858Y9292620D02*
X-9801191Y9768810D01*
X-10039286Y9292620D02*
X-10039286Y10292620D01*
X-9658334Y10292620D01*
X-9563096Y10245000D01*
X-9515477Y10197381D01*
X-9467858Y10102143D01*
X-9467858Y9959286D01*
X-9515477Y9864048D01*
X-9563096Y9816429D01*
X-9658334Y9768810D01*
X-10039286Y9768810D01*
X-8658334Y9340239D02*
X-8753572Y9292620D01*
X-8944048Y9292620D01*
X-9039286Y9340239D01*
X-9086905Y9435477D01*
X-9086905Y9816429D01*
X-9039286Y9911667D01*
X-8944048Y9959286D01*
X-8753572Y9959286D01*
X-8658334Y9911667D01*
X-8610715Y9816429D01*
X-8610715Y9721191D01*
X-9086905Y9625953D01*
X-8039286Y9292620D02*
X-8134524Y9340239D01*
X-8182143Y9435477D01*
X-8182143Y10292620D01*
X-7658334Y9292620D02*
X-7658334Y9959286D01*
X-7658334Y10292620D02*
X-7705953Y10245000D01*
X-7658334Y10197381D01*
X-7610715Y10245000D01*
X-7658334Y10292620D01*
X-7658334Y10197381D01*
X-6801191Y9340239D02*
X-6896429Y9292620D01*
X-7086905Y9292620D01*
X-7182143Y9340239D01*
X-7229762Y9435477D01*
X-7229762Y9816429D01*
X-7182143Y9911667D01*
X-7086905Y9959286D01*
X-6896429Y9959286D01*
X-6801191Y9911667D01*
X-6753572Y9816429D01*
X-6753572Y9721191D01*
X-7229762Y9625953D01*
X-6467858Y9959286D02*
X-6086905Y9959286D01*
X-6325000Y9292620D02*
X-6325000Y10149762D01*
X-6277381Y10245000D01*
X-6182143Y10292620D01*
X-6086905Y10292620D01*
X-5039286Y9578334D02*
X-4563096Y9578334D01*
X-5134524Y9292620D02*
X-4801191Y10292620D01*
X-4467858Y9292620D01*
X-4134524Y9959286D02*
X-4134524Y9292620D01*
X-4134524Y9864048D02*
X-4086905Y9911667D01*
X-3991667Y9959286D01*
X-3848810Y9959286D01*
X-3753572Y9911667D01*
X-3705953Y9816429D01*
X-3705953Y9292620D01*
X-2801191Y9340239D02*
X-2896429Y9292620D01*
X-3086905Y9292620D01*
X-3182143Y9340239D01*
X-3229762Y9387858D01*
X-3277381Y9483096D01*
X-3277381Y9768810D01*
X-3229762Y9864048D01*
X-3182143Y9911667D01*
X-3086905Y9959286D01*
X-2896429Y9959286D01*
X-2801191Y9911667D01*
X-2372620Y9292620D02*
X-2372620Y10292620D01*
X-1944048Y9292620D02*
X-1944048Y9816429D01*
X-1991667Y9911667D01*
X-2086905Y9959286D01*
X-2229762Y9959286D01*
X-2325000Y9911667D01*
X-2372620Y9864048D01*
X-1325000Y9292620D02*
X-1420239Y9340239D01*
X-1467858Y9387858D01*
X-1515477Y9483096D01*
X-1515477Y9768810D01*
X-1467858Y9864048D01*
X-1420239Y9911667D01*
X-1325000Y9959286D01*
X-1182143Y9959286D01*
X-1086905Y9911667D01*
X-1039286Y9864048D01*
X-991667Y9768810D01*
X-991667Y9483096D01*
X-1039286Y9387858D01*
X-1086905Y9340239D01*
X-1182143Y9292620D01*
X-1325000Y9292620D01*
X-563096Y9292620D02*
X-563096Y9959286D01*
X-563096Y9768810D02*
X-515477Y9864048D01*
X-467858Y9911667D01*
X-372620Y9959286D01*
X-277381Y9959286D01*
X8333Y9340239D02*
X103571Y9292620D01*
X294047Y9292620D01*
X389285Y9340239D01*
X436904Y9435477D01*
X436904Y9483096D01*
X389285Y9578334D01*
X294047Y9625953D01*
X151190Y9625953D01*
X55952Y9673572D01*
X8333Y9768810D01*
X8333Y9816429D01*
X55952Y9911667D01*
X151190Y9959286D01*
X294047Y9959286D01*
X389285Y9911667D01*
M02*
